<svg width="17" height="16" viewBox="0 0 17 16" fill="none" xmlns="http://www.w3.org/2000/svg">
<rect width="17" height="16" fill="#E5E5E5"/>
<g clip-path="url(#clip0_0_1)">
<rect width="1440" height="3786" transform="translate(-192 -3682)" fill="#F3F1EE"/>
<rect x="-192" y="-264" width="1440" height="368" fill="#F0DCC5"/>
<path fill-rule="evenodd" clip-rule="evenodd" d="M-8 8C-8 -0.836555 -0.836555 -8 8 -8C16.8366 -8 24 -0.836555 24 8C24 16.8366 16.8366 24 8 24C-0.836555 24 -8 16.8366 -8 8Z" fill="#DFD1C0"/>
<path fill-rule="evenodd" clip-rule="evenodd" d="M16.0222 8.00002C16.0222 8.54179 15.9671 9.08282 15.8588 9.61019C15.7531 10.125 15.5966 10.6305 15.3917 11.1137C15.1914 11.5883 14.943 12.0457 14.6527 12.4723C14.3668 12.8961 14.0374 13.2938 13.6755 13.6563C13.3129 14.0172 12.9139 14.3457 12.4902 14.6328C12.0623 14.9211 11.6042 15.1691 11.1293 15.3703C10.6454 15.5742 10.1388 15.7305 9.62439 15.8359C9.09632 15.9445 8.55332 16 8.01076 16C7.4678 16 6.92483 15.9445 6.39751 15.8359C5.88233 15.7305 5.37573 15.5742 4.89222 15.3703C4.41733 15.1691 3.95883 14.9211 3.53088 14.6328C3.10723 14.3457 2.70822 14.0172 2.34636 13.6563C1.98414 13.2938 1.65474 12.8961 1.36839 12.4723C1.07969 12.0457 0.830881 11.5883 0.629824 11.1137C0.424816 10.6305 0.267971 10.125 0.161956 9.61019C0.0547795 9.08282 0 8.54179 0 8.00002C0 7.45783 0.0547482 6.91565 0.161987 6.38944C0.268003 5.87459 0.424847 5.36835 0.629855 4.88594C0.830912 4.41095 1.07972 3.95315 1.36842 3.52657C1.65477 3.10237 1.98417 2.70547 2.3464 2.34257C2.70825 1.98162 3.10726 1.65391 3.53091 1.3672C3.95886 1.07773 4.41736 0.829713 4.89225 0.628132C5.37576 0.423796 5.88233 0.267178 6.39754 0.162505C6.92486 0.0547005 7.46783 0 8.01079 0C8.55335 0 9.09632 0.0547005 9.62442 0.162505C10.1388 0.267209 10.6454 0.423827 11.1293 0.628132C11.6042 0.829681 12.0623 1.07773 12.4903 1.3672C12.9139 1.65391 13.313 1.98162 13.6756 2.34257C14.0374 2.70547 14.3668 3.10237 14.6528 3.52657C14.943 3.95315 15.1914 4.41098 15.3917 4.88594C15.5966 5.36835 15.7531 5.87459 15.8588 6.38944C15.9671 6.91565 16.0222 7.45783 16.0222 8.00002ZM5.09168 1.8207C3.18384 2.72033 1.75991 4.47578 1.31591 6.59141C1.49627 6.59298 4.34725 6.62892 7.63205 5.75741C6.44794 3.65662 5.18283 1.94221 5.09168 1.8207ZM8.19887 6.8094C4.67624 7.86249 1.29596 7.78672 1.17471 7.78205C1.17273 7.85548 1.16922 7.92655 1.16922 8.00001C1.16922 9.75506 1.83228 11.3551 2.92213 12.5649C2.91978 12.5613 4.79204 9.24453 8.48406 8.05236C8.57323 8.02268 8.66401 7.99609 8.75397 7.97032C8.58227 7.58207 8.39485 7.193 8.19887 6.8094ZM12.529 2.87266C11.3245 1.81209 9.74293 1.16878 8.01074 1.16878C7.45485 1.16878 6.9154 1.23597 6.39865 1.36018C6.50112 1.4977 7.7862 3.20002 8.95623 5.3453C11.5377 4.37891 12.5121 2.89765 12.529 2.87266ZM9.22032 9.10235C9.20509 9.10739 9.18985 9.11174 9.17495 9.11719C5.13835 10.5224 3.82014 13.3542 3.80587 13.3852C4.96734 14.2871 6.42412 14.8312 8.01079 14.8312C8.95822 14.8312 9.86068 14.6386 10.6818 14.2898C10.5805 13.693 10.183 11.6008 9.22032 9.10235ZM11.8338 13.6656C13.37 12.6305 14.461 10.9867 14.7654 9.08278C14.6245 9.03747 12.7105 8.43239 10.5022 8.78592C11.3996 11.2484 11.7642 13.2539 11.8338 13.6656ZM9.48282 6.36328C9.64161 6.68907 9.79538 7.02066 9.93737 7.3539C9.98785 7.47345 10.0371 7.59065 10.0852 7.70781C12.4355 7.41249 14.7509 7.90936 14.8499 7.92965C14.8343 6.31015 14.2541 4.82381 13.2942 3.66016C13.2813 3.67848 12.184 5.2617 9.48282 6.36328Z" fill="#647B64"/>
</g>
<defs>
<clipPath id="clip0_0_1">
<rect width="1440" height="3786" fill="white" transform="translate(-192 -3682)"/>
</clipPath>
</defs>
</svg>
