<svg width="16" height="16" viewBox="0 0 16 16" fill="none" xmlns="http://www.w3.org/2000/svg">
<path fill-rule="evenodd" clip-rule="evenodd" d="M8.00075 0C5.82806 0 5.55539 0.0095001 4.70205 0.0483338C3.85037 0.0873342 3.26903 0.222169 2.76036 0.420004C2.23419 0.62434 1.78785 0.897676 1.34318 1.34251C0.898176 1.78719 0.62484 2.23352 0.419838 2.75953C0.221502 3.26837 0.0865009 3.84987 0.0481672 4.70122C0.0100001 5.55456 0 5.82739 0 8.00008C0 10.1728 0.00966677 10.4446 0.0483338 11.2979C0.0875009 12.1496 0.222336 12.731 0.420004 13.2396C0.624507 13.7658 0.897843 14.2121 1.34268 14.6568C1.78719 15.1018 2.23352 15.3758 2.75936 15.5802C3.26837 15.778 3.84987 15.9128 4.70138 15.9518C5.55472 15.9907 5.82723 16.0002 7.99975 16.0002C10.1726 16.0002 10.4444 15.9907 11.2978 15.9518C12.1495 15.9128 12.7315 15.778 13.2405 15.5802C13.7665 15.3758 14.2121 15.1018 14.6567 14.6568C15.1017 14.2121 15.375 13.7658 15.58 13.2398C15.7767 12.731 15.9117 12.1495 15.9517 11.2981C15.99 10.4448 16 10.1728 16 8.00008C16 5.82739 15.99 5.55472 15.9517 4.70138C15.9117 3.84971 15.7767 3.26837 15.58 2.7597C15.375 2.23352 15.1017 1.78719 14.6567 1.34251C14.2116 0.897509 13.7666 0.624173 13.24 0.420004C12.73 0.222169 12.1483 0.0873342 11.2966 0.0483338C10.4433 0.0095001 10.1716 0 7.99825 0H8.00075ZM7.28304 1.44166C7.49604 1.44133 7.73371 1.44166 8.00072 1.44166C10.1367 1.44166 10.3899 1.44933 11.2334 1.48766C12.0134 1.52333 12.4368 1.65366 12.7188 1.76316C13.0921 1.90816 13.3583 2.0815 13.6381 2.3615C13.9181 2.64151 14.0914 2.90817 14.2368 3.28151C14.3463 3.56318 14.4768 3.98652 14.5123 4.76653C14.5506 5.60987 14.5589 5.86321 14.5589 7.99823C14.5589 10.1333 14.5506 10.3866 14.5123 11.2299C14.4766 12.0099 14.3463 12.4333 14.2368 12.7149C14.0918 13.0883 13.9181 13.3541 13.6381 13.634C13.3581 13.914 13.0923 14.0873 12.7188 14.2323C12.4371 14.3423 12.0134 14.4723 11.2334 14.508C10.3901 14.5463 10.1367 14.5546 8.00072 14.5546C5.86453 14.5546 5.61136 14.5463 4.76801 14.508C3.98801 14.472 3.56467 14.3416 3.2825 14.2321C2.90916 14.0871 2.64249 13.9138 2.36249 13.6338C2.08249 13.3538 1.90915 13.0878 1.76382 12.7143C1.65432 12.4326 1.52381 12.0093 1.48831 11.2293C1.44998 10.3859 1.44231 10.1326 1.44231 7.99623C1.44231 5.85987 1.44998 5.60787 1.48831 4.76453C1.52398 3.98452 1.65432 3.56118 1.76382 3.27918C1.90882 2.90584 2.08249 2.63917 2.36249 2.35917C2.64249 2.07917 2.90916 1.90583 3.2825 1.7605C3.5645 1.65049 3.98801 1.52049 4.76801 1.48466C5.50602 1.45133 5.79203 1.44133 7.28304 1.43966V1.44166ZM12.2711 2.77001C11.7411 2.77001 11.3111 3.19951 11.3111 3.72969C11.3111 4.25969 11.7411 4.6897 12.2711 4.6897C12.8011 4.6897 13.2311 4.25969 13.2311 3.72969C13.2311 3.19968 12.8011 2.77001 12.2711 2.77001ZM8.00076 3.89169C5.73191 3.89169 3.89239 5.7312 3.89239 8.00006C3.89239 10.2689 5.73191 12.1076 8.00076 12.1076C10.2696 12.1076 12.1085 10.2689 12.1085 8.00006C12.1085 5.7312 10.2696 3.89169 8.00076 3.89169ZM8.00073 5.33337C9.47341 5.33337 10.6674 6.52721 10.6674 8.00006C10.6674 9.47274 9.47341 10.6668 8.00073 10.6668C6.52788 10.6668 5.33404 9.47274 5.33404 8.00006C5.33404 6.52721 6.52788 5.33337 8.00073 5.33337Z" fill="#647B64"/>
</svg>
