<svg width="16" height="14" viewBox="0 0 16 14" fill="none" xmlns="http://www.w3.org/2000/svg">
<path fill-rule="evenodd" clip-rule="evenodd" d="M14.251 0.417968C14.9395 0.647952 15.4816 1.3256 15.6656 2.18615C16 3.74579 16 7 16 7C16 7 16 10.2541 15.6656 11.8139C15.4816 12.6744 14.9395 13.352 14.251 13.5821C13.0034 14 8 14 8 14C8 14 2.99664 14 1.74891 13.5821C1.06045 13.352 0.518273 12.6744 0.334273 11.8139C0 10.2541 0 7 0 7C0 7 0 3.74579 0.334273 2.18615C0.518273 1.3256 1.06045 0.647952 1.74891 0.417968C2.99664 0 8 0 8 0C8 0 13.0034 0 14.251 0.417968ZM6.50001 4.2608V10.3478L10.5 7.3044L6.50001 4.2608Z" fill="#647B64"/>
</svg>
